<svg width="24" height="22" viewBox="0 0 24 22" fill="none" xmlns="http://www.w3.org/2000/svg">
<path d="M22.5265 18.4903V10.499C22.5265 9.29929 22.0473 8.148 21.1759 7.32336C20.1545 6.3567 18.7374 5.05262 17.5933 4.13928C15.4292 2.4116 14.3491 1 11.7632 1C9.17736 1 8.09728 2.4116 5.93315 4.13928C4.78908 5.05262 3.37196 6.3567 2.35054 7.32336C1.47918 8.148 1 9.29929 1 10.499V18.4903C1 19.9764 2.20472 20.7828 3.69081 20.7828H7.5271C8.07938 20.7828 8.5271 20.3351 8.5271 19.7828V15.4457V14.4848C8.5271 12.674 9.99509 11.206 11.8059 11.206C13.6168 11.206 15.0848 12.674 15.0848 14.4848V15.4457V19.7828C15.0848 20.3351 15.5325 20.7828 16.0848 20.7828H19.8357C21.3218 20.7828 22.5265 19.9764 22.5265 18.4903Z" stroke="#B8B8B8" stroke-width="2"/>
</svg>
