<svg width="24" height="23" viewBox="0 0 24 23" fill="none" xmlns="http://www.w3.org/2000/svg">
<path d="M23.7477 19.295V10.4792C23.7477 9.15566 23.2191 7.88558 22.2578 6.97584C21.131 5.90944 19.5677 4.4708 18.3055 3.46321C15.9181 1.55726 14.7266 0 11.8739 0C9.02116 0 7.82962 1.55726 5.44219 3.46321C4.18006 4.4708 2.61671 5.90944 1.48989 6.97584C0.528628 7.88558 0 9.15566 0 10.4792V19.295C0 20.9345 1.32903 22.2635 2.96847 22.2635H6.92642C8.01938 22.2635 8.9054 21.3775 8.9054 20.2845V15.9363C8.9054 14.9437 9.40143 14.0169 10.2273 13.4663C11.2244 12.8016 12.5234 12.8016 13.5205 13.4663C14.3463 14.0169 14.8423 14.9437 14.8423 15.9363V20.2845C14.8423 21.3775 15.7283 22.2635 16.8213 22.2635H20.7793C22.4187 22.2635 23.7477 20.9345 23.7477 19.295Z" fill="black"/>
</svg>
