<svg width="16" height="4" viewBox="0 0 16 4" fill="none" xmlns="http://www.w3.org/2000/svg">
<path d="M3.60352 1.79297V1.81055C3.60352 2.14453 3.52441 2.44629 3.36621 2.71582C3.20801 2.98535 2.99121 3.19922 2.71582 3.35742C2.44629 3.51562 2.14453 3.59473 1.81055 3.59473H1.79297C1.45898 3.59473 1.15723 3.51562 0.887695 3.35742C0.618164 3.19922 0.401367 2.98535 0.237305 2.71582C0.0791016 2.44629 0 2.14453 0 1.81055V1.79297C0 1.45898 0.0791016 1.15723 0.237305 0.887695C0.401367 0.612305 0.618164 0.395508 0.887695 0.237305C1.15723 0.0791016 1.45898 0 1.79297 0H1.81055C2.14453 0 2.44629 0.0791016 2.71582 0.237305C2.99121 0.395508 3.20801 0.612305 3.36621 0.887695C3.52441 1.15723 3.60352 1.45898 3.60352 1.79297Z" fill="black"/>
<path d="M9.80176 1.79297V1.81055C9.80176 2.14453 9.72266 2.44629 9.56445 2.71582C9.40625 2.98535 9.18945 3.19922 8.91406 3.35742C8.64453 3.51562 8.34277 3.59473 8.00879 3.59473H7.99121C7.65723 3.59473 7.35547 3.51562 7.08594 3.35742C6.81641 3.19922 6.59961 2.98535 6.43555 2.71582C6.27734 2.44629 6.19824 2.14453 6.19824 1.81055V1.79297C6.19824 1.45898 6.27734 1.15723 6.43555 0.887695C6.59961 0.612305 6.81641 0.395508 7.08594 0.237305C7.35547 0.0791016 7.65723 0 7.99121 0H8.00879C8.34277 0 8.64453 0.0791016 8.91406 0.237305C9.18945 0.395508 9.40625 0.612305 9.56445 0.887695C9.72266 1.15723 9.80176 1.45898 9.80176 1.79297Z" fill="black"/>
<path d="M16 1.79297V1.81055C16 2.14453 15.9209 2.44629 15.7627 2.71582C15.6045 2.98535 15.3877 3.19922 15.1123 3.35742C14.8428 3.51562 14.541 3.59473 14.207 3.59473H14.1895C13.8555 3.59473 13.5537 3.51562 13.2842 3.35742C13.0146 3.19922 12.7979 2.98535 12.6338 2.71582C12.4756 2.44629 12.3965 2.14453 12.3965 1.81055V1.79297C12.3965 1.45898 12.4756 1.15723 12.6338 0.887695C12.7979 0.612305 13.0146 0.395508 13.2842 0.237305C13.5537 0.0791016 13.8555 0 14.1895 0H14.207C14.541 0 14.8428 0.0791016 15.1123 0.237305C15.3877 0.395508 15.6045 0.612305 15.7627 0.887695C15.9209 1.15723 16 1.45898 16 1.79297Z" fill="black"/>
</svg>
