<svg width="14" height="14" viewBox="0 0 14 14" fill="none" xmlns="http://www.w3.org/2000/svg">
<path d="M9.91658 5.25V4.08333C9.91658 3.30978 9.60929 2.56792 9.06231 2.02094C8.51533 1.47395 7.77347 1.16666 6.99992 1.16666C6.22637 1.16666 5.4845 1.47395 4.93752 2.02094C4.39054 2.56792 4.08325 3.30978 4.08325 4.08333V5.25C3.61912 5.25 3.174 5.43437 2.84582 5.76256C2.51763 6.09075 2.33325 6.53587 2.33325 7V11.0833C2.33325 11.5475 2.51763 11.9926 2.84582 12.3208C3.174 12.649 3.61912 12.8333 4.08325 12.8333H9.91658C10.3807 12.8333 10.8258 12.649 11.154 12.3208C11.4822 11.9926 11.6666 11.5475 11.6666 11.0833V7C11.6666 6.53587 11.4822 6.09075 11.154 5.76256C10.8258 5.43437 10.3807 5.25 9.91658 5.25ZM5.24992 4.08333C5.24992 3.6192 5.43429 3.17408 5.76248 2.84589C6.09067 2.51771 6.53579 2.33333 6.99992 2.33333C7.46405 2.33333 7.90917 2.51771 8.23736 2.84589C8.56554 3.17408 8.74992 3.6192 8.74992 4.08333V5.25H5.24992V4.08333ZM10.4999 11.0833C10.4999 11.238 10.4385 11.3864 10.3291 11.4958C10.2197 11.6052 10.0713 11.6667 9.91658 11.6667H4.08325C3.92854 11.6667 3.78017 11.6052 3.67077 11.4958C3.56138 11.3864 3.49992 11.238 3.49992 11.0833V7C3.49992 6.84529 3.56138 6.69692 3.67077 6.58752C3.78017 6.47812 3.92854 6.41666 4.08325 6.41666H9.91658C10.0713 6.41666 10.2197 6.47812 10.3291 6.58752C10.4385 6.69692 10.4999 6.84529 10.4999 7V11.0833Z" fill="black"/>
</svg>
