<svg width="247" height="289" viewBox="0 0 247 289" fill="none" xmlns="http://www.w3.org/2000/svg">
<path d="M175.271 140.82C175.271 176.017 162.096 207.801 125.925 207.801C92.2789 207.801 77.0854 185.599 83.6442 161.756C91.8319 131.993 138.332 128.108 175.271 140.82ZM175.271 140.82C174.917 106.456 164.682 80.3136 124.396 80.3136C103.501 80.3136 92.8821 88.4194 83.6442 101.817M175.271 140.82C190.187 145.953 204.435 154.711 211.73 166.497C240.461 212.913 203.061 275.993 126.54 275.993C44.642 275.993 12.9927 217.118 12.9927 144.493C12.9927 71.8672 43.9603 12.9927 126.54 12.9927C188.835 12.9927 221.76 46.4954 234.176 94.1306" stroke="#101010" stroke-width="25.9854"/>
</svg>
